GRF
version=1
nRows=30
nColumns=19
inDegrees=no
endheader
time	ground_force_vx	ground_force_vy	ground_force_vz	ground_force_px	ground_force_py	ground_force_pz	ground_torque_x	ground_torque_y	ground_torque_z	1_ground_force_vx	1_ground_force_vy	1_ground_force_vz	1_ground_force_px	1_ground_force_py	1_ground_force_pz	1_ground_torque_x	1_ground_torque_y	1_ground_torque_z
      1.75000000	    -45.60082336	    328.42715572	      7.81192469	      0.19315396	     -0.00000000	     -0.09932040	      0.00000000	      0.42021915	     -0.00000000	     48.40351303	    384.24527683	     -2.66024340	     -0.24721492	      0.00000000	     -0.06017720	      0.00000000	      0.63261640	     -0.00000000
      1.75100000	    -45.66482561	    328.46607471	      7.72731727	      0.19321728	     -0.00000000	     -0.09920160	      0.00000000	      0.41940346	     -0.00000000	     48.43483842	    384.28664171	     -2.66329625	     -0.24722401	      0.00000000	     -0.06016649	      0.00000000	      0.63196180	     -0.00000000
      1.75200000	    -45.72647076	    328.49323393	      7.63986143	      0.19328244	     -0.00000000	     -0.09908029	      0.00000000	      0.41832012	     -0.00000000	     48.46575238	    384.32960126	     -2.66698025	     -0.24723309	      0.00000000	     -0.06015557	      0.00000000	      0.63128086	     -0.00000000
      1.75300000	    -45.78569091	    328.50861372	      7.54965511	      0.19334939	     -0.00000000	     -0.09895658	      0.00000000	      0.41696620	     -0.00000000	     48.49618387	    384.37411561	     -2.67128673	     -0.24724213	      0.00000000	     -0.06014445	      0.00000000	      0.63056940	     -0.00000000
      1.75400000	    -45.84243051	    328.51224877	      7.45680225	      0.19341807	     -0.00000000	     -0.09883060	      0.00000000	      0.41534016	     -0.00000000	     48.52606292	    384.42014059	     -2.67620649	     -0.24725112	      0.00000000	     -0.06013313	      0.00000000	      0.62982427	     -0.00000000
      1.75500000	    -45.89664624	    328.50422721	      7.36141245	      0.19348839	     -0.00000000	     -0.09870246	      0.00000000	      0.41344192	     -0.00000000	     48.55532110	    384.46762762	     -2.68172981	     -0.24726003	      0.00000000	     -0.06012161	      0.00000000	      0.62904340	     -0.00000000
      1.75600000	    -45.94830670	    328.48468939	      7.26360056	      0.19356029	     -0.00000000	     -0.09857228	      0.00000000	      0.41127279	     -0.00000000	     48.58389196	    384.51652359	     -2.68784640	     -0.24726886	      0.00000000	     -0.06010992	      0.00000000	      0.62822580	     -0.00000000
      1.75700000	    -45.99739208	    328.45382624	      7.16348628	      0.19363367	     -0.00000000	     -0.09844019	      0.00000000	      0.40883540	     -0.00000000	     48.61171143	    384.56677082	     -2.69454539	     -0.24727757	      0.00000000	     -0.06009803	      0.00000000	      0.62737159	     -0.00000000
      1.75800000	    -46.04389375	    328.41187743	      7.06119372	      0.19370845	     -0.00000000	     -0.09830632	      0.00000000	      0.40613371	     -0.00000000	     48.63871829	    384.61830694	     -2.70181523	     -0.24728616	      0.00000000	     -0.06008597	      0.00000000	      0.62648204	     -0.00000000
      1.75900000	    -46.08781376	    328.35912909	      6.95685100	      0.19378453	     -0.00000000	     -0.09817078	      0.00000000	      0.40317287	     -0.00000000	     48.66485454	    384.67106491	     -2.70964370	     -0.24729461	      0.00000000	     -0.06007373	      0.00000000	      0.62555950	     -0.00000000
      1.76000000	    -46.12916423	    328.29591131	      6.85058981	      0.19386183	     -0.00000000	     -0.09803371	      0.00000000	      0.39995921	     -0.00000000	     48.69006581	    384.72497295	     -2.71801782	     -0.24730289	      0.00000000	     -0.06006131	      0.00000000	      0.62460745	     -0.00000000
      1.76100000	    -46.16796678	    328.22259544	      6.74254496	      0.19394023	     -0.00000000	     -0.09789523	      0.00000000	      0.39650015	     -0.00000000	     48.71430169	    384.77995461	     -2.72692380	     -0.24731100	      0.00000000	     -0.06004871	      0.00000000	      0.62363041	     -0.00000000
      1.76200000	    -46.20425184	    328.13959103	      6.63285400	      0.19401964	     -0.00000000	     -0.09775547	      0.00000000	      0.39280407	     -0.00000000	     48.73751611	    384.83592877	     -2.73634700	     -0.24731892	      0.00000000	     -0.06003592	      0.00000000	      0.62263394	     -0.00000000
      1.76300000	    -46.23805792	    328.04734270	      6.52165670	      0.19409996	     -0.00000000	     -0.09761455	      0.00000000	      0.38888026	     -0.00000000	     48.75966759	    384.89280977	     -2.74627191	     -0.24732663	      0.00000000	     -0.06002295	      0.00000000	      0.62162455	     -0.00000000
      1.76400000	    -46.26943091	    327.94632678	      6.40909471	      0.19418106	     -0.00000000	     -0.09747261	      0.00000000	      0.38473883	     -0.00000000	     48.78071954	    384.95050749	     -2.75668204	     -0.24733413	      0.00000000	     -0.06000977	      0.00000000	      0.62060968	     -0.00000000
      1.76500000	    -46.29842330	    327.83704783	      6.29531105	      0.19426285	     -0.00000000	     -0.09732976	      0.00000000	      0.38039059	     -0.00000000	     48.80064046	    385.00892751	     -2.76755996	     -0.24734141	      0.00000000	     -0.05999640	      0.00000000	      0.61959758	     -0.00000000
      1.76600000	    -46.32509341	    327.72003503	      6.18044974	      0.19434520	     -0.00000000	     -0.09718614	      0.00000000	      0.37584696	     -0.00000000	     48.81940416	    385.06797131	     -2.77888721	     -0.24734845	      0.00000000	     -0.05998280	      0.00000000	      0.61859727	     -0.00000000
      1.76700000	    -46.34950466	    327.59583858	      6.06465536	      0.19442800	     -0.00000000	     -0.09704186	      0.00000000	      0.37111985	     -0.00000000	     48.83698987	    385.12753646	     -2.79064434	     -0.24735525	      0.00000000	     -0.05996897	      0.00000000	      0.61761838	     -0.00000000
      1.76800000	    -46.37172476	    327.46502593	      5.94807268	      0.19451114	     -0.00000000	     -0.09689706	      0.00000000	      0.36622161	     -0.00000000	     48.85338235	    385.18751693	     -2.80281087	     -0.24736180	      0.00000000	     -0.05995490	      0.00000000	      0.61667115	     -0.00000000
      1.76900000	    -46.39182501	    327.32817817	      5.83084623	      0.19459451	     -0.00000000	     -0.09675186	      0.00000000	      0.36116489	     -0.00000000	     48.86857195	    385.24780332	     -2.81536528	     -0.24736811	      0.00000000	     -0.05994056	      0.00000000	      0.61576623	     -0.00000000
      1.77000000	    -46.40987955	    327.18588624	      5.71311994	      0.19467797	     -0.00000000	     -0.09660638	      0.00000000	      0.35596256	     -0.00000000	     48.88255461	    385.30828322	     -2.82828505	     -0.24737416	      0.00000000	     -0.05992594	      0.00000000	      0.61491462	     -0.00000000
      1.77100000	    -46.42596473	    327.03874739	      5.59503680	      0.19476143	     -0.00000000	     -0.09646075	      0.00000000	      0.35062762	     -0.00000000	     48.89533181	    385.36884153	     -2.84154665	     -0.24737996	      0.00000000	     -0.05991102	      0.00000000	      0.61412756	     -0.00000000
      1.77200000	    -46.44015839	    326.88736158	      5.47673851	      0.19484476	     -0.00000000	     -0.09631508	      0.00000000	      0.34517310	     -0.00000000	     48.90691049	    385.42936090	     -2.85512559	     -0.24738550	      0.00000000	     -0.05989577	      0.00000000	      0.61341639	     -0.00000000
      1.77300000	    -46.45253932	    326.73232804	      5.35836518	      0.19492785	     -0.00000000	     -0.09616950	      0.00000000	      0.33961199	     -0.00000000	     48.91730291	    385.48972205	     -2.86899648	     -0.24739081	      0.00000000	     -0.05988017	      0.00000000	      0.61279245	     -0.00000000
      1.77400000	    -46.46318669	    326.57424199	      5.24005500	      0.19501059	     -0.00000000	     -0.09602413	      0.00000000	      0.33395717	     -0.00000000	     48.92652647	    385.54980424	     -2.88313300	     -0.24739587	      0.00000000	     -0.05986419	      0.00000000	      0.61226695	     -0.00000000
      1.77500000	    -46.47217951	    326.41369139	      5.12194402	      0.19509287	     -0.00000000	     -0.09587908	      0.00000000	      0.32822132	     -0.00000000	     48.93460351	    385.60948571	     -2.89750802	     -0.24740070	      0.00000000	     -0.05984781	      0.00000000	      0.61185089	     -0.00000000
      1.77600000	    -46.47959623	    326.25125405	      5.00416588	      0.19517458	     -0.00000000	     -0.09573448	      0.00000000	      0.32241685	     -0.00000000	     48.94156102	    385.66864410	     -2.91209365	     -0.24740531	      0.00000000	     -0.05983100	      0.00000000	      0.61155488	     -0.00000000
      1.77700000	    -46.48551434	    326.08749472	      4.88685161	      0.19525561	     -0.00000000	     -0.09559044	      0.00000000	      0.31655587	     -0.00000000	     48.94743034	    385.72715695	     -2.92686126	     -0.24740971	      0.00000000	     -0.05981373	      0.00000000	      0.61138912	     -0.00000000
      1.77800000	    -46.49001000	    325.92296258	      4.77012948	      0.19533587	     -0.00000000	     -0.09544708	      0.00000000	      0.31065010	     -0.00000000	     48.95224686	    385.78490211	     -2.94178159	     -0.24741392	      0.00000000	     -0.05979598	      0.00000000	      0.61136322	     -0.00000000
      1.77900000	    -46.49315780	    325.75818877	      4.65412477	      0.19541526	     -0.00000000	     -0.09530451	      0.00000000	      0.30471083	     -0.00000000	     48.95604963	    385.84175826	     -2.95682478	     -0.24741794	      0.00000000	     -0.05977772	      0.00000000	      0.61148615	     -0.00000000
